<svg width="320" height="201" viewBox="0 0 320 201" fill="none" xmlns="http://www.w3.org/2000/svg">
<path fill-rule="evenodd" clip-rule="evenodd" d="M192 63.8135H128V65.3018H192V63.8135ZM192 81.6739H128V83.1623H192V81.6739ZM128 99.5344H192V101.023H128V99.5344ZM192 117.395H128V118.883H192V117.395ZM128 135.255H192V136.744H128V135.255Z" fill="#1E2229"/>
<path fill-rule="evenodd" clip-rule="evenodd" d="M256 63.8135H192V65.3018H256V63.8135ZM256 81.6739H192V83.1623H256V81.6739ZM192 99.5344H256V101.023H192V99.5344ZM256 117.395H192V118.883H256V117.395ZM192 135.255H256V136.744H192V135.255Z" fill="#1E2229"/>
<path fill-rule="evenodd" clip-rule="evenodd" d="M320 63.8135H256V65.3018H320V63.8135ZM320 81.6739H256V83.1623H320V81.6739ZM256 99.5344H320V101.023H256V99.5344ZM320 117.395H256V118.883H320V117.395ZM256 135.255H320V136.744H256V135.255Z" fill="#1E2229"/>
<path fill-rule="evenodd" clip-rule="evenodd" d="M128 63.8135H64V65.3018H128V63.8135ZM128 81.6739H64V83.1623H128V81.6739ZM64 99.5344H128V101.023H64V99.5344ZM128 117.395H64V118.883H128V117.395ZM64 135.255H128V136.744H64V135.255Z" fill="#1E2229"/>
<path fill-rule="evenodd" clip-rule="evenodd" d="M64 63.8135H0V65.3018H64V63.8135ZM64 81.6739H0V83.1623H64V81.6739ZM0 99.5344H64V101.023H0V99.5344ZM64 117.395H0V118.883H64V117.395ZM0 135.255H64V136.744H0V135.255Z" fill="#1E2229"/>
<g clip-path="url(#clip0_1363_38171)">
<path d="M27.1649 102.683H27.5684C27.7202 102.641 27.8766 102.618 28.0339 102.614C33.0536 102.614 37.1754 104.383 40.3991 107.922C43.5633 111.21 45.3146 115.606 45.2781 120.169C45.2781 125.962 42.88 130.668 38.0837 134.284C36.6071 135.384 34.9436 136.206 33.1737 136.712C33.3971 139.608 33.5089 141.959 33.5089 143.763C33.5089 144.123 33.4654 145.425 33.3785 147.668C33.2644 151.674 31.7412 155.512 29.0768 158.506C27.9036 159.934 26.4239 161.079 24.7476 161.857C23.0712 162.635 21.2411 163.026 19.3932 163C17.6613 163.031 15.9414 162.707 14.3399 162.047C12.7383 161.387 11.2892 160.406 10.0821 159.164C8.83934 157.936 7.85859 156.469 7.19921 154.852C6.53982 153.234 6.21551 151.5 6.24589 149.753C6.23653 148.822 6.4299 147.9 6.81257 147.051C7.19524 146.202 7.75805 145.447 8.46195 144.837C9.92253 143.528 11.8203 142.813 13.7817 142.832C14.6412 142.82 15.4924 143.001 16.2724 143.362C17.0525 143.723 17.7414 144.255 18.2883 144.918C18.9052 145.559 19.3876 146.317 19.7074 147.148C20.0272 147.978 20.1779 148.864 20.1505 149.753C20.1408 151.444 19.4646 153.063 18.2689 154.259C17.0731 155.455 15.4541 156.131 13.7631 156.141C13.0469 156.142 12.3369 156.008 11.6712 155.744C13.6534 158.64 16.2771 160.089 19.5422 160.089C21.0153 160.117 22.4741 159.794 23.7975 159.146C25.121 158.499 26.271 157.545 27.1525 156.364C29.2077 153.768 30.3838 150.585 30.5107 147.277C30.5976 145.125 30.641 143.894 30.641 143.583C30.6623 141.511 30.5753 139.439 30.3803 137.376C28.4002 137.706 26.3975 137.882 24.3902 137.903C18.1579 137.903 12.8423 135.441 8.4433 130.517C4.16359 125.602 1.8628 119.273 1.98761 112.757C1.99385 111.299 2.13305 109.845 2.4035 108.412C2.66835 107.199 3.00147 105.877 3.40288 104.445C3.87436 103.086 4.48165 101.778 5.21548 100.541C5.58172 100.007 5.9852 99.3367 6.45696 98.5235C6.92873 97.7104 7.21427 97.1827 7.38807 96.9096C8.12735 95.6068 9.01015 94.3908 10.02 93.2845C10.3738 92.8748 10.7401 92.4278 11.1249 91.9313C11.5098 91.4347 11.8264 91.0374 12.0995 90.6898C12.3726 90.3422 12.5775 90.1311 12.7202 89.9511C12.863 89.7711 13.8624 88.5855 15.7494 86.3818C16.2126 85.9266 16.6499 85.4458 17.0592 84.9417C17.4813 84.4203 17.829 84.0168 18.0959 83.7002C18.3628 83.3836 18.5676 83.1974 18.7166 83.0795C17.372 78.9093 16.357 74.64 15.6812 70.3108C15.3261 66.8236 15.1706 63.319 15.2156 59.8141C15.1956 55.9949 16.1233 52.2304 17.9158 48.858C19.5854 45.3898 22.1051 42.4002 25.2406 40.1676C25.4401 40.0363 25.6723 39.9632 25.911 39.9565C26.1555 39.9356 26.3984 40.0114 26.5876 40.1676C29.2774 43.5882 31.3775 47.4338 32.8012 51.5458C34.6014 56.2138 35.5015 60.4534 35.5015 64.2648C35.5151 68.5001 34.4468 72.6688 32.3977 76.3755C29.7762 80.7771 26.7616 84.9323 23.3908 88.7903C24.326 91.7243 25.5841 96.3551 27.1649 102.683ZM32.8633 133.949C35.1245 133.166 37.0497 131.632 38.3196 129.604C39.7461 127.674 40.5045 125.331 40.4798 122.931C40.4993 119.805 39.3478 116.784 37.252 114.464C36.2071 113.222 34.924 112.201 33.4784 111.462C32.0328 110.723 30.4538 110.281 28.8347 110.162C30.7673 119.61 32.1101 127.539 32.8633 133.949ZM6.84182 118.431C6.84182 122.863 8.63575 126.761 12.2236 130.126C15.5726 133.273 19.9932 135.028 24.5888 135.036C26.4376 135.039 28.2842 134.907 30.1134 134.638C29.1578 126.407 27.7423 118.236 25.8737 110.162C23.5825 110.312 21.4163 111.261 19.7532 112.844C18.3433 114.254 17.5469 116.164 17.5372 118.158C17.5372 121.568 19.3518 124.326 22.9811 126.432C23.1246 126.558 23.2406 126.713 23.3217 126.886C23.4029 127.059 23.4476 127.247 23.4529 127.438C23.4466 127.629 23.4015 127.818 23.3205 127.992C23.2394 128.166 23.124 128.321 22.9811 128.45C22.8616 128.601 22.7085 128.722 22.534 128.804C22.3595 128.886 22.1682 128.926 21.9755 128.921C21.7665 128.889 21.5593 128.845 21.3548 128.791C18.9547 127.535 16.9193 125.682 15.4453 123.409C14.1928 121.263 13.519 118.829 13.4899 116.345C13.47 113.227 14.5329 110.199 16.497 107.777C18.4612 105.356 21.2049 103.691 24.2598 103.067C23.0183 98.0435 21.9838 94.1121 21.1561 91.2733C20.4423 92.0864 19.5732 93.061 18.5614 94.2032C17.5496 95.3453 16.9599 96.0282 16.7861 96.2516C15.1721 98.3621 13.9307 100.001 13.0616 101.168C11.7829 102.879 10.6591 104.701 9.70343 106.612C8.90419 108.426 8.22812 110.293 7.6798 112.198C7.10119 114.22 6.82099 116.316 6.84803 118.418L6.84182 118.431ZM29.3127 50.0374C26.04 51.6219 23.2805 54.0974 21.3513 57.1796C19.4221 60.2617 18.4013 63.8255 18.4062 67.4616C18.4062 70.6853 19.2153 75.0305 20.8333 80.4972C23.6674 77.1872 26.1029 73.5558 28.0898 69.6777C29.7748 66.2669 30.65 62.5134 30.6473 58.7092C30.6385 55.7645 30.1907 52.8376 29.3189 50.025L29.3127 50.0374Z" fill="#1E2229"/>
</g>
<path d="M95.0963 143.756C90.8957 142.484 87.5813 139.028 87.5813 135.919C87.5813 127.119 106.793 123.637 114.726 130.998C123.306 138.959 109.304 148.059 95.0963 143.756H95.0963ZM107.91 141.546C110.248 138.036 108.013 131.083 103.965 129.268C98.0194 126.603 94.3752 131.145 96.8513 138.133C98.564 142.967 105.532 145.117 107.91 141.546Z" fill="#1E2229"/>
<path d="M95.095 125.965C90.8944 124.693 87.58 121.237 87.58 118.128C87.58 109.328 106.791 105.846 114.725 113.207C123.304 121.168 109.303 130.268 95.095 125.965H95.095ZM107.909 123.755C110.246 120.245 108.012 113.292 103.963 111.477C98.0181 108.812 94.3739 113.354 96.85 120.342C98.5627 125.176 105.531 127.326 107.909 123.755Z" fill="#1E2229"/>
<path d="M94.5615 161.465C90.361 160.193 87.0467 156.736 87.0467 153.628C87.0467 144.828 106.257 141.346 114.191 148.707C122.77 156.668 108.769 165.767 94.5615 161.465H94.5615ZM107.375 159.254C109.712 155.745 107.478 148.792 103.43 146.977C97.4845 144.312 93.8404 148.854 96.3165 155.842C98.0291 160.675 104.997 162.825 107.375 159.254Z" fill="#1E2229"/>
<path d="M120 152.809H84V154.809H120V152.809Z" fill="#1E2229"/>
<g clip-path="url(#clip1_1363_38171)">
<path fill-rule="evenodd" clip-rule="evenodd" d="M180.646 89.2166C180.876 89.3076 181.075 89.4726 181.213 89.6888C181.352 89.9049 181.424 90.1615 181.419 90.4231V149.87C181.426 150.098 181.372 150.324 181.264 150.521C181.157 150.718 180.999 150.879 180.81 150.986C180.628 151.091 180.424 151.145 180.217 151.14C180.01 151.136 179.808 151.075 179.631 150.962C179.453 150.85 179.306 150.69 179.203 150.498C179.101 150.307 179.048 150.091 179.048 149.87V90.3883C179.051 90.1862 179.1 89.9879 179.189 89.8098C179.279 89.6318 179.407 89.4791 179.564 89.3645C179.72 89.2499 179.9 89.1767 180.088 89.1509C180.276 89.1252 180.468 89.1478 180.646 89.2166Z" fill="#1E2229"/>
<path d="M173.382 143.602C175.44 143.536 177.462 144.159 179.126 145.371C179.831 145.959 180.395 146.699 180.776 147.534C181.157 148.37 181.345 149.28 181.327 150.198C181.327 153.469 179.65 156.526 176.297 159.369C172.943 162.212 169.299 163.631 165.364 163.626C163.306 163.693 161.284 163.071 159.62 161.858C158.914 161.27 158.35 160.53 157.969 159.695C157.589 158.859 157.4 157.949 157.419 157.03C157.419 153.768 159.124 150.712 162.535 147.86C165.503 145.155 169.365 143.639 173.382 143.602Z" fill="#1E2229"/>
</g>
<g clip-path="url(#clip2_1363_38171)">
<path fill-rule="evenodd" clip-rule="evenodd" d="M238.227 71.3563C238.458 71.4473 238.656 71.6123 238.794 71.8284C238.933 72.0446 239.005 72.3012 239 72.5628V132.01C239.007 132.238 238.953 132.463 238.845 132.661C238.738 132.858 238.58 133.019 238.391 133.126C238.209 133.231 238.005 133.284 237.798 133.28C237.592 133.276 237.389 133.214 237.212 133.102C237.034 132.989 236.887 132.829 236.785 132.638C236.682 132.447 236.629 132.23 236.629 132.01V72.5279C236.632 72.3259 236.681 72.1276 236.77 71.9495C236.86 71.7714 236.988 71.6187 237.145 71.5041C237.301 71.3895 237.481 71.3163 237.669 71.2906C237.857 71.2649 238.049 71.2874 238.227 71.3563Z" fill="#1E2229"/>
<path d="M230.963 125.742C233.021 125.676 235.043 126.298 236.707 127.511C237.412 128.099 237.976 128.838 238.357 129.674C238.738 130.51 238.926 131.42 238.908 132.338C238.908 135.609 237.231 138.666 233.878 141.508C230.524 144.351 226.88 145.77 222.945 145.766C220.887 145.833 218.865 145.211 217.201 143.998C216.496 143.409 215.931 142.67 215.551 141.834C215.17 140.999 214.981 140.088 215 139.17C215 135.908 216.705 132.851 220.116 130C223.084 127.294 226.946 125.778 230.963 125.742Z" fill="#1E2229"/>
</g>
<g clip-path="url(#clip3_1363_38171)">
<path fill-rule="evenodd" clip-rule="evenodd" d="M293.855 53.4959C294.085 53.5869 294.284 53.7519 294.422 53.9681C294.561 54.1842 294.632 54.4408 294.628 54.7024V114.15C294.635 114.378 294.581 114.603 294.473 114.8C294.366 114.998 294.208 115.159 294.019 115.266C293.837 115.371 293.633 115.424 293.426 115.42C293.219 115.415 293.017 115.354 292.84 115.242C292.662 115.129 292.515 114.969 292.412 114.778C292.31 114.586 292.257 114.37 292.257 114.15V54.6676C292.26 54.4655 292.309 54.2672 292.398 54.0891C292.488 53.9111 292.616 53.7584 292.773 53.6438C292.929 53.5292 293.109 53.456 293.297 53.4302C293.485 53.4045 293.677 53.427 293.855 53.4959Z" fill="#1E2229"/>
<path d="M286.591 106.882C288.649 106.816 290.671 107.438 292.335 108.65C293.04 109.239 293.604 109.978 293.985 110.814C294.366 111.649 294.554 112.56 294.536 113.478C294.536 116.749 292.859 119.805 289.506 122.648C286.152 125.491 282.508 126.91 278.573 126.906C276.515 126.973 274.493 126.35 272.829 125.137C272.123 124.549 271.559 123.81 271.178 122.974C270.797 122.138 270.609 121.228 270.628 120.31C270.628 117.048 272.333 113.991 275.744 111.139C278.712 108.434 282.574 106.918 286.591 106.882Z" fill="#1E2229"/>
</g>
<path d="M175.776 182.88H172.987C172.907 182.423 172.761 182.018 172.547 181.665C172.333 181.307 172.067 181.004 171.749 180.755C171.431 180.506 171.068 180.32 170.66 180.196C170.258 180.066 169.822 180.002 169.355 180.002C168.525 180.002 167.789 180.211 167.148 180.628C166.506 181.041 166.004 181.647 165.641 182.448C165.278 183.243 165.097 184.215 165.097 185.364C165.097 186.532 165.278 187.516 165.641 188.317C166.009 189.112 166.511 189.714 167.148 190.121C167.789 190.524 168.522 190.725 169.348 190.725C169.805 190.725 170.233 190.666 170.63 190.547C171.033 190.422 171.394 190.241 171.712 190.002C172.035 189.763 172.306 189.47 172.525 189.122C172.748 188.774 172.902 188.376 172.987 187.929L175.776 187.944C175.672 188.67 175.445 189.351 175.097 189.987C174.754 190.624 174.304 191.185 173.748 191.673C173.191 192.155 172.539 192.533 171.794 192.806C171.048 193.075 170.22 193.209 169.31 193.209C167.968 193.209 166.77 192.898 165.716 192.277C164.662 191.655 163.832 190.758 163.225 189.585C162.619 188.411 162.315 187.004 162.315 185.364C162.315 183.718 162.621 182.311 163.233 181.143C163.844 179.969 164.677 179.072 165.731 178.451C166.785 177.829 167.978 177.518 169.31 177.518C170.161 177.518 170.951 177.638 171.682 177.876C172.413 178.115 173.064 178.466 173.636 178.928C174.207 179.385 174.677 179.947 175.045 180.613C175.418 181.275 175.662 182.03 175.776 182.88Z" fill="#1E2229"/>
<path d="M221.628 193V177.727H231.562V180.047H224.395V184.193H231.047V186.512H224.395V190.681H231.621V193H221.628Z" fill="#1E2229"/>
<path d="M286.812 182.604C286.687 182.202 286.516 181.841 286.297 181.523C286.083 181.2 285.825 180.924 285.522 180.695C285.223 180.467 284.88 180.295 284.492 180.181C284.105 180.061 283.682 180.002 283.225 180.002C282.404 180.002 281.674 180.208 281.032 180.621C280.391 181.033 279.886 181.64 279.518 182.44C279.155 183.236 278.974 184.205 278.974 185.349C278.974 186.502 279.155 187.479 279.518 188.279C279.881 189.08 280.386 189.689 281.032 190.107C281.678 190.519 282.429 190.725 283.284 190.725C284.06 190.725 284.731 190.576 285.298 190.278C285.87 189.98 286.31 189.557 286.618 189.01C286.926 188.458 287.08 187.812 287.08 187.071L287.707 187.168H283.56V185.006H289.757V186.84C289.757 188.148 289.479 189.279 288.922 190.233C288.365 191.188 287.6 191.924 286.625 192.441C285.651 192.953 284.532 193.209 283.269 193.209C281.862 193.209 280.627 192.893 279.563 192.262C278.504 191.625 277.676 190.723 277.08 189.555C276.488 188.381 276.192 186.989 276.192 185.379C276.192 184.146 276.366 183.044 276.714 182.075C277.067 181.105 277.56 180.283 278.191 179.607C278.822 178.925 279.563 178.408 280.413 178.055C281.263 177.697 282.188 177.518 283.187 177.518C284.033 177.518 284.821 177.643 285.551 177.891C286.282 178.135 286.931 178.483 287.498 178.935C288.069 179.388 288.539 179.925 288.907 180.546C289.275 181.168 289.516 181.854 289.631 182.604H286.812Z" fill="#1E2229"/>
<path d="M187 153H151V155H187V153Z" fill="#1E2229"/>
<defs>
<clipPath id="clip0_1363_38171">
<rect width="43.2471" height="123" fill="white" transform="translate(2 40)"/>
</clipPath>
<clipPath id="clip1_1363_38171">
<rect width="32" height="70.4607" fill="white" transform="translate(153.419 93.1396)"/>
</clipPath>
<clipPath id="clip2_1363_38171">
<rect width="24" height="70.4607" fill="white" transform="translate(215 75.2793)"/>
</clipPath>
<clipPath id="clip3_1363_38171">
<rect width="24" height="70.4607" fill="white" transform="translate(270.628 56.4189)"/>
</clipPath>
</defs>
</svg>
